<mxfile host="Electron" modified="2024-05-26T09:27:15.022Z" agent="Mozilla/5.0 (Windows NT 10.0; Win64; x64) AppleWebKit/537.36 (KHTML, like Gecko) draw.io/21.4.0 Chrome/112.0.5615.204 Electron/24.5.1 Safari/537.36" etag="3no6zERLpjDWF-A2gFQ7" version="21.4.0" type="device">
  <diagram name="Page-1" id="ZirYJTsKvD7a3nU20qLH">
    <mxGraphModel dx="2268" dy="868" grid="1" gridSize="10" guides="1" tooltips="1" connect="1" arrows="1" fold="1" page="1" pageScale="1" pageWidth="850" pageHeight="1100" math="0" shadow="0">
      <root>
        <mxCell id="0" />
        <mxCell id="1" parent="0" />
        <mxCell id="JgvFJQ8lv26SpHcQZbP2-1" value="" style="rounded=0;whiteSpace=wrap;html=1;movable=0;resizable=0;rotatable=0;deletable=0;editable=0;locked=1;connectable=0;" parent="1" vertex="1">
          <mxGeometry x="-750" y="60" width="2410" height="1360" as="geometry" />
        </mxCell>
        <mxCell id="JgvFJQ8lv26SpHcQZbP2-2" value="&lt;font style=&quot;font-size: 15px;&quot;&gt;Employee&lt;/font&gt;" style="whiteSpace=wrap;html=1;align=center;" parent="1" vertex="1">
          <mxGeometry x="280" y="465" width="100" height="40" as="geometry" />
        </mxCell>
        <mxCell id="JgvFJQ8lv26SpHcQZbP2-3" value="Employee Code" style="ellipse;whiteSpace=wrap;html=1;align=center;fontStyle=4;" parent="1" vertex="1">
          <mxGeometry x="280" y="265" width="100" height="30" as="geometry" />
        </mxCell>
        <mxCell id="JgvFJQ8lv26SpHcQZbP2-4" value="Employee Name" style="ellipse;whiteSpace=wrap;html=1;align=center;" parent="1" vertex="1">
          <mxGeometry x="205" y="295" width="100" height="30" as="geometry" />
        </mxCell>
        <mxCell id="JgvFJQ8lv26SpHcQZbP2-5" value="Employee Profile Pic" style="ellipse;whiteSpace=wrap;html=1;align=center;" parent="1" vertex="1">
          <mxGeometry x="-10" y="505" width="120" height="40" as="geometry" />
        </mxCell>
        <mxCell id="JgvFJQ8lv26SpHcQZbP2-6" value="Gender" style="ellipse;whiteSpace=wrap;html=1;align=center;" parent="1" vertex="1">
          <mxGeometry x="55" y="360" width="100" height="30" as="geometry" />
        </mxCell>
        <mxCell id="JgvFJQ8lv26SpHcQZbP2-7" value="Civil status" style="ellipse;whiteSpace=wrap;html=1;align=center;" parent="1" vertex="1">
          <mxGeometry x="35" y="550" width="100" height="30" as="geometry" />
        </mxCell>
        <mxCell id="JgvFJQ8lv26SpHcQZbP2-8" value="" style="endArrow=none;html=1;rounded=0;entryX=0;entryY=0.5;entryDx=0;entryDy=0;exitX=1;exitY=0.5;exitDx=0;exitDy=0;" parent="1" source="JgvFJQ8lv26SpHcQZbP2-7" target="JgvFJQ8lv26SpHcQZbP2-2" edge="1">
          <mxGeometry width="50" height="50" relative="1" as="geometry">
            <mxPoint x="270" y="345" as="sourcePoint" />
            <mxPoint x="185" y="419" as="targetPoint" />
          </mxGeometry>
        </mxCell>
        <mxCell id="JgvFJQ8lv26SpHcQZbP2-9" value="" style="endArrow=none;html=1;rounded=0;exitX=1;exitY=0.5;exitDx=0;exitDy=0;entryX=0;entryY=0.5;entryDx=0;entryDy=0;" parent="1" source="JgvFJQ8lv26SpHcQZbP2-6" target="JgvFJQ8lv26SpHcQZbP2-2" edge="1">
          <mxGeometry width="50" height="50" relative="1" as="geometry">
            <mxPoint x="225" y="341" as="sourcePoint" />
            <mxPoint x="195" y="475" as="targetPoint" />
          </mxGeometry>
        </mxCell>
        <mxCell id="JgvFJQ8lv26SpHcQZbP2-10" value="" style="endArrow=none;html=1;rounded=0;exitX=1;exitY=0.5;exitDx=0;exitDy=0;entryX=0;entryY=0.5;entryDx=0;entryDy=0;" parent="1" source="JgvFJQ8lv26SpHcQZbP2-5" target="JgvFJQ8lv26SpHcQZbP2-2" edge="1">
          <mxGeometry width="50" height="50" relative="1" as="geometry">
            <mxPoint x="175" y="370" as="sourcePoint" />
            <mxPoint x="290" y="495" as="targetPoint" />
          </mxGeometry>
        </mxCell>
        <mxCell id="JgvFJQ8lv26SpHcQZbP2-11" value="" style="endArrow=none;html=1;rounded=0;exitX=0.5;exitY=1;exitDx=0;exitDy=0;entryX=0.5;entryY=0;entryDx=0;entryDy=0;" parent="1" source="JgvFJQ8lv26SpHcQZbP2-4" target="JgvFJQ8lv26SpHcQZbP2-2" edge="1">
          <mxGeometry width="50" height="50" relative="1" as="geometry">
            <mxPoint x="155" y="415" as="sourcePoint" />
            <mxPoint x="290" y="495" as="targetPoint" />
          </mxGeometry>
        </mxCell>
        <mxCell id="JgvFJQ8lv26SpHcQZbP2-12" value="" style="endArrow=none;html=1;rounded=0;exitX=0.5;exitY=1;exitDx=0;exitDy=0;entryX=0.5;entryY=0;entryDx=0;entryDy=0;" parent="1" source="JgvFJQ8lv26SpHcQZbP2-3" target="JgvFJQ8lv26SpHcQZbP2-2" edge="1">
          <mxGeometry width="50" height="50" relative="1" as="geometry">
            <mxPoint x="125" y="470" as="sourcePoint" />
            <mxPoint x="290" y="495" as="targetPoint" />
          </mxGeometry>
        </mxCell>
        <mxCell id="JgvFJQ8lv26SpHcQZbP2-13" value="Designation" style="ellipse;whiteSpace=wrap;html=1;align=center;" parent="1" vertex="1">
          <mxGeometry x="360" y="300" width="100" height="30" as="geometry" />
        </mxCell>
        <mxCell id="JgvFJQ8lv26SpHcQZbP2-14" value="Role" style="ellipse;whiteSpace=wrap;html=1;align=center;" parent="1" vertex="1">
          <mxGeometry x="520" y="325" width="100" height="30" as="geometry" />
        </mxCell>
        <mxCell id="JgvFJQ8lv26SpHcQZbP2-15" value="DOB" style="ellipse;whiteSpace=wrap;html=1;align=center;" parent="1" vertex="1">
          <mxGeometry x="570" y="360" width="100" height="30" as="geometry" />
        </mxCell>
        <mxCell id="JgvFJQ8lv26SpHcQZbP2-16" value="Date Of Join" style="ellipse;whiteSpace=wrap;html=1;align=center;" parent="1" vertex="1">
          <mxGeometry x="620" y="445" width="100" height="30" as="geometry" />
        </mxCell>
        <mxCell id="JgvFJQ8lv26SpHcQZbP2-17" value="Attached Branch" style="ellipse;whiteSpace=wrap;html=1;align=center;" parent="1" vertex="1">
          <mxGeometry x="587.5" y="490" width="100" height="30" as="geometry" />
        </mxCell>
        <mxCell id="JgvFJQ8lv26SpHcQZbP2-18" value="" style="endArrow=none;html=1;rounded=0;entryX=0.5;entryY=0;entryDx=0;entryDy=0;exitX=0;exitY=1;exitDx=0;exitDy=0;" parent="1" source="JgvFJQ8lv26SpHcQZbP2-13" target="JgvFJQ8lv26SpHcQZbP2-2" edge="1">
          <mxGeometry width="50" height="50" relative="1" as="geometry">
            <mxPoint x="215" y="356" as="sourcePoint" />
            <mxPoint x="290" y="495" as="targetPoint" />
          </mxGeometry>
        </mxCell>
        <mxCell id="JgvFJQ8lv26SpHcQZbP2-19" value="" style="endArrow=none;html=1;rounded=0;entryX=1;entryY=0.5;entryDx=0;entryDy=0;exitX=0;exitY=0.5;exitDx=0;exitDy=0;" parent="1" source="JgvFJQ8lv26SpHcQZbP2-14" target="JgvFJQ8lv26SpHcQZbP2-2" edge="1">
          <mxGeometry width="50" height="50" relative="1" as="geometry">
            <mxPoint x="475" y="351" as="sourcePoint" />
            <mxPoint x="390" y="495" as="targetPoint" />
          </mxGeometry>
        </mxCell>
        <mxCell id="JgvFJQ8lv26SpHcQZbP2-20" value="" style="endArrow=none;html=1;rounded=0;entryX=1;entryY=0.5;entryDx=0;entryDy=0;exitX=0;exitY=0.5;exitDx=0;exitDy=0;" parent="1" source="JgvFJQ8lv26SpHcQZbP2-15" target="JgvFJQ8lv26SpHcQZbP2-2" edge="1">
          <mxGeometry width="50" height="50" relative="1" as="geometry">
            <mxPoint x="515" y="380" as="sourcePoint" />
            <mxPoint x="390" y="495" as="targetPoint" />
          </mxGeometry>
        </mxCell>
        <mxCell id="JgvFJQ8lv26SpHcQZbP2-21" value="" style="endArrow=none;html=1;rounded=0;entryX=1;entryY=0.5;entryDx=0;entryDy=0;exitX=0;exitY=0.5;exitDx=0;exitDy=0;" parent="1" source="JgvFJQ8lv26SpHcQZbP2-16" target="JgvFJQ8lv26SpHcQZbP2-2" edge="1">
          <mxGeometry width="50" height="50" relative="1" as="geometry">
            <mxPoint x="555" y="425" as="sourcePoint" />
            <mxPoint x="390" y="495" as="targetPoint" />
          </mxGeometry>
        </mxCell>
        <mxCell id="JgvFJQ8lv26SpHcQZbP2-22" value="" style="endArrow=none;html=1;rounded=0;entryX=1;entryY=0.5;entryDx=0;entryDy=0;exitX=0;exitY=0.5;exitDx=0;exitDy=0;" parent="1" source="JgvFJQ8lv26SpHcQZbP2-17" target="JgvFJQ8lv26SpHcQZbP2-2" edge="1">
          <mxGeometry width="50" height="50" relative="1" as="geometry">
            <mxPoint x="560" y="470" as="sourcePoint" />
            <mxPoint x="390" y="495" as="targetPoint" />
          </mxGeometry>
        </mxCell>
        <mxCell id="JgvFJQ8lv26SpHcQZbP2-23" value="Address" style="ellipse;whiteSpace=wrap;html=1;align=center;" parent="1" vertex="1">
          <mxGeometry x="80" y="310" width="110" height="35" as="geometry" />
        </mxCell>
        <mxCell id="JgvFJQ8lv26SpHcQZbP2-24" value="" style="endArrow=none;html=1;rounded=0;exitX=1;exitY=0.5;exitDx=0;exitDy=0;entryX=0;entryY=0.5;entryDx=0;entryDy=0;" parent="1" source="JgvFJQ8lv26SpHcQZbP2-23" target="JgvFJQ8lv26SpHcQZbP2-2" edge="1">
          <mxGeometry width="50" height="50" relative="1" as="geometry">
            <mxPoint x="115" y="530" as="sourcePoint" />
            <mxPoint x="215" y="475" as="targetPoint" />
          </mxGeometry>
        </mxCell>
        <mxCell id="JgvFJQ8lv26SpHcQZbP2-25" value="Address Line 1" style="ellipse;whiteSpace=wrap;html=1;align=center;dashed=1;" parent="1" vertex="1">
          <mxGeometry x="-70" y="270" width="100" height="40" as="geometry" />
        </mxCell>
        <mxCell id="JgvFJQ8lv26SpHcQZbP2-26" value="Address Line 2" style="ellipse;whiteSpace=wrap;html=1;align=center;dashed=1;" parent="1" vertex="1">
          <mxGeometry x="-70" y="330" width="100" height="40" as="geometry" />
        </mxCell>
        <mxCell id="JgvFJQ8lv26SpHcQZbP2-27" value="" style="endArrow=none;html=1;rounded=0;entryX=1;entryY=0.5;entryDx=0;entryDy=0;exitX=0;exitY=0.5;exitDx=0;exitDy=0;" parent="1" source="JgvFJQ8lv26SpHcQZbP2-23" target="JgvFJQ8lv26SpHcQZbP2-26" edge="1">
          <mxGeometry width="50" height="50" relative="1" as="geometry">
            <mxPoint x="90" y="330" as="sourcePoint" />
            <mxPoint x="-175" y="380" as="targetPoint" />
          </mxGeometry>
        </mxCell>
        <mxCell id="JgvFJQ8lv26SpHcQZbP2-28" value="" style="endArrow=none;html=1;rounded=0;entryX=1;entryY=0.5;entryDx=0;entryDy=0;exitX=0;exitY=0.5;exitDx=0;exitDy=0;" parent="1" source="JgvFJQ8lv26SpHcQZbP2-23" target="JgvFJQ8lv26SpHcQZbP2-25" edge="1">
          <mxGeometry width="50" height="50" relative="1" as="geometry">
            <mxPoint x="-35" y="475" as="sourcePoint" />
            <mxPoint x="-195" y="385" as="targetPoint" />
          </mxGeometry>
        </mxCell>
        <mxCell id="JgvFJQ8lv26SpHcQZbP2-29" value="Contact No." style="ellipse;whiteSpace=wrap;html=1;align=center;" parent="1" vertex="1">
          <mxGeometry x="590" y="400" width="100" height="30" as="geometry" />
        </mxCell>
        <mxCell id="JgvFJQ8lv26SpHcQZbP2-30" value="" style="endArrow=none;html=1;rounded=0;entryX=1;entryY=0.5;entryDx=0;entryDy=0;exitX=0;exitY=0.5;exitDx=0;exitDy=0;" parent="1" source="JgvFJQ8lv26SpHcQZbP2-29" target="JgvFJQ8lv26SpHcQZbP2-2" edge="1">
          <mxGeometry width="50" height="50" relative="1" as="geometry">
            <mxPoint x="570" y="440" as="sourcePoint" />
            <mxPoint x="390" y="495" as="targetPoint" />
          </mxGeometry>
        </mxCell>
        <mxCell id="JgvFJQ8lv26SpHcQZbP2-31" value="Email" style="ellipse;whiteSpace=wrap;html=1;align=center;" parent="1" vertex="1">
          <mxGeometry x="582.5" y="540" width="75" height="30" as="geometry" />
        </mxCell>
        <mxCell id="JgvFJQ8lv26SpHcQZbP2-32" value="Guardian name" style="ellipse;whiteSpace=wrap;html=1;align=center;" parent="1" vertex="1">
          <mxGeometry x="205" y="600" width="95" height="40" as="geometry" />
        </mxCell>
        <mxCell id="JgvFJQ8lv26SpHcQZbP2-33" value="Emergency Contact" style="ellipse;whiteSpace=wrap;html=1;align=center;" parent="1" vertex="1">
          <mxGeometry x="110" y="580" width="90" height="40" as="geometry" />
        </mxCell>
        <mxCell id="JgvFJQ8lv26SpHcQZbP2-34" value="" style="endArrow=none;html=1;rounded=0;exitX=0.5;exitY=0;exitDx=0;exitDy=0;entryX=0;entryY=0.5;entryDx=0;entryDy=0;" parent="1" source="JgvFJQ8lv26SpHcQZbP2-32" target="JgvFJQ8lv26SpHcQZbP2-2" edge="1">
          <mxGeometry width="50" height="50" relative="1" as="geometry">
            <mxPoint x="135" y="590" as="sourcePoint" />
            <mxPoint x="290" y="495" as="targetPoint" />
          </mxGeometry>
        </mxCell>
        <mxCell id="JgvFJQ8lv26SpHcQZbP2-35" value="" style="endArrow=none;html=1;rounded=0;exitX=0.041;exitY=0.186;exitDx=0;exitDy=0;entryX=1;entryY=0.5;entryDx=0;entryDy=0;exitPerimeter=0;" parent="1" source="JgvFJQ8lv26SpHcQZbP2-31" target="JgvFJQ8lv26SpHcQZbP2-2" edge="1">
          <mxGeometry width="50" height="50" relative="1" as="geometry">
            <mxPoint x="278" y="645" as="sourcePoint" />
            <mxPoint x="335" y="555" as="targetPoint" />
          </mxGeometry>
        </mxCell>
        <mxCell id="JgvFJQ8lv26SpHcQZbP2-36" value="" style="endArrow=none;html=1;rounded=0;exitX=1;exitY=0.367;exitDx=0;exitDy=0;entryX=0;entryY=0.5;entryDx=0;entryDy=0;exitPerimeter=0;" parent="1" source="JgvFJQ8lv26SpHcQZbP2-33" target="JgvFJQ8lv26SpHcQZbP2-2" edge="1">
          <mxGeometry width="50" height="50" relative="1" as="geometry">
            <mxPoint x="343" y="695" as="sourcePoint" />
            <mxPoint x="365" y="565" as="targetPoint" />
          </mxGeometry>
        </mxCell>
        <mxCell id="JgvFJQ8lv26SpHcQZbP2-54" value="&lt;font style=&quot;font-size: 15px;&quot;&gt;Order&lt;/font&gt;" style="whiteSpace=wrap;html=1;align=center;" parent="1" vertex="1">
          <mxGeometry x="281" y="860" width="100" height="40" as="geometry" />
        </mxCell>
        <mxCell id="JgvFJQ8lv26SpHcQZbP2-55" value="Order Id" style="ellipse;whiteSpace=wrap;html=1;align=center;fontStyle=4;" parent="1" vertex="1">
          <mxGeometry x="65" y="930" width="100" height="30" as="geometry" />
        </mxCell>
        <mxCell id="JgvFJQ8lv26SpHcQZbP2-56" value="Customer Name" style="ellipse;whiteSpace=wrap;html=1;align=center;" parent="1" vertex="1">
          <mxGeometry x="230" y="1060" width="90" height="30" as="geometry" />
        </mxCell>
        <mxCell id="JgvFJQ8lv26SpHcQZbP2-57" value="Total Price" style="ellipse;whiteSpace=wrap;html=1;align=center;" parent="1" vertex="1">
          <mxGeometry x="480" y="980" width="90" height="30" as="geometry" />
        </mxCell>
        <mxCell id="JgvFJQ8lv26SpHcQZbP2-58" value="Order Date" style="ellipse;whiteSpace=wrap;html=1;align=center;" parent="1" vertex="1">
          <mxGeometry x="330" y="1060" width="90" height="30" as="geometry" />
        </mxCell>
        <mxCell id="JgvFJQ8lv26SpHcQZbP2-59" value="Payment Method" style="ellipse;whiteSpace=wrap;html=1;align=center;" parent="1" vertex="1">
          <mxGeometry x="410" y="1020" width="95" height="30" as="geometry" />
        </mxCell>
        <mxCell id="JgvFJQ8lv26SpHcQZbP2-60" value="Added points" style="ellipse;whiteSpace=wrap;html=1;align=center;" parent="1" vertex="1">
          <mxGeometry x="520" y="930" width="95" height="30" as="geometry" />
        </mxCell>
        <mxCell id="JgvFJQ8lv26SpHcQZbP2-61" value="Cashier name " style="ellipse;whiteSpace=wrap;html=1;align=center;" parent="1" vertex="1">
          <mxGeometry x="95" y="980" width="95" height="30" as="geometry" />
        </mxCell>
        <mxCell id="JgvFJQ8lv26SpHcQZbP2-62" value="" style="endArrow=none;html=1;rounded=0;entryX=0.5;entryY=1;entryDx=0;entryDy=0;exitX=1;exitY=0.5;exitDx=0;exitDy=0;" parent="1" source="JgvFJQ8lv26SpHcQZbP2-55" target="JgvFJQ8lv26SpHcQZbP2-54" edge="1">
          <mxGeometry width="50" height="50" relative="1" as="geometry">
            <mxPoint x="285" y="766" as="sourcePoint" />
            <mxPoint x="388" y="860" as="targetPoint" />
          </mxGeometry>
        </mxCell>
        <mxCell id="JgvFJQ8lv26SpHcQZbP2-63" value="" style="endArrow=none;html=1;rounded=0;exitX=0.5;exitY=0;exitDx=0;exitDy=0;entryX=0.5;entryY=1;entryDx=0;entryDy=0;" parent="1" source="JgvFJQ8lv26SpHcQZbP2-56" target="JgvFJQ8lv26SpHcQZbP2-54" edge="1">
          <mxGeometry width="50" height="50" relative="1" as="geometry">
            <mxPoint x="244" y="782" as="sourcePoint" />
            <mxPoint x="320" y="900" as="targetPoint" />
          </mxGeometry>
        </mxCell>
        <mxCell id="JgvFJQ8lv26SpHcQZbP2-64" value="" style="endArrow=none;html=1;rounded=0;entryX=0.5;entryY=1;entryDx=0;entryDy=0;exitX=0.311;exitY=0.048;exitDx=0;exitDy=0;exitPerimeter=0;" parent="1" source="JgvFJQ8lv26SpHcQZbP2-57" target="JgvFJQ8lv26SpHcQZbP2-54" edge="1">
          <mxGeometry width="50" height="50" relative="1" as="geometry">
            <mxPoint x="273" y="735" as="sourcePoint" />
            <mxPoint x="335" y="870" as="targetPoint" />
          </mxGeometry>
        </mxCell>
        <mxCell id="JgvFJQ8lv26SpHcQZbP2-65" value="" style="endArrow=none;html=1;rounded=0;entryX=0.5;entryY=1;entryDx=0;entryDy=0;exitX=0.437;exitY=0.079;exitDx=0;exitDy=0;exitPerimeter=0;" parent="1" source="JgvFJQ8lv26SpHcQZbP2-58" target="JgvFJQ8lv26SpHcQZbP2-54" edge="1">
          <mxGeometry width="50" height="50" relative="1" as="geometry">
            <mxPoint x="310" y="706" as="sourcePoint" />
            <mxPoint x="335" y="870" as="targetPoint" />
          </mxGeometry>
        </mxCell>
        <mxCell id="JgvFJQ8lv26SpHcQZbP2-66" value="" style="endArrow=none;html=1;rounded=0;entryX=0.5;entryY=1;entryDx=0;entryDy=0;" parent="1" source="JgvFJQ8lv26SpHcQZbP2-59" target="JgvFJQ8lv26SpHcQZbP2-54" edge="1">
          <mxGeometry width="50" height="50" relative="1" as="geometry">
            <mxPoint x="338" y="680" as="sourcePoint" />
            <mxPoint x="335" y="870" as="targetPoint" />
          </mxGeometry>
        </mxCell>
        <mxCell id="JgvFJQ8lv26SpHcQZbP2-67" value="" style="endArrow=none;html=1;rounded=0;entryX=0.5;entryY=1;entryDx=0;entryDy=0;" parent="1" source="JgvFJQ8lv26SpHcQZbP2-61" target="JgvFJQ8lv26SpHcQZbP2-54" edge="1">
          <mxGeometry width="50" height="50" relative="1" as="geometry">
            <mxPoint x="372" y="706" as="sourcePoint" />
            <mxPoint x="335" y="870" as="targetPoint" />
          </mxGeometry>
        </mxCell>
        <mxCell id="JgvFJQ8lv26SpHcQZbP2-68" value="" style="endArrow=none;html=1;rounded=0;entryX=0.5;entryY=1;entryDx=0;entryDy=0;exitX=0;exitY=0.5;exitDx=0;exitDy=0;" parent="1" source="JgvFJQ8lv26SpHcQZbP2-60" target="JgvFJQ8lv26SpHcQZbP2-54" edge="1">
          <mxGeometry width="50" height="50" relative="1" as="geometry">
            <mxPoint x="412" y="746" as="sourcePoint" />
            <mxPoint x="335" y="870" as="targetPoint" />
          </mxGeometry>
        </mxCell>
        <mxCell id="JgvFJQ8lv26SpHcQZbP2-70" value="" style="endArrow=none;html=1;rounded=0;entryX=0.665;entryY=-0.073;entryDx=0;entryDy=0;exitX=0.5;exitY=1;exitDx=0;exitDy=0;entryPerimeter=0;" parent="1" source="JgvFJQ8lv26SpHcQZbP2-54" target="JgvFJQ8lv26SpHcQZbP2-71" edge="1">
          <mxGeometry width="50" height="50" relative="1" as="geometry">
            <mxPoint x="465" y="920" as="sourcePoint" />
            <mxPoint x="215" y="765" as="targetPoint" />
          </mxGeometry>
        </mxCell>
        <mxCell id="JgvFJQ8lv26SpHcQZbP2-71" value="Customer id" style="ellipse;whiteSpace=wrap;html=1;align=center;" parent="1" vertex="1">
          <mxGeometry x="155" y="1020" width="90" height="30" as="geometry" />
        </mxCell>
        <mxCell id="JgvFJQ8lv26SpHcQZbP2-72" value="&lt;font style=&quot;font-size: 15px;&quot;&gt;has&lt;/font&gt;" style="shape=rhombus;perimeter=rhombusPerimeter;whiteSpace=wrap;html=1;align=center;" parent="1" vertex="1">
          <mxGeometry x="300" y="670" width="60" height="30" as="geometry" />
        </mxCell>
        <mxCell id="JgvFJQ8lv26SpHcQZbP2-73" value="" style="fontSize=12;html=1;endArrow=ERone;endFill=1;rounded=0;entryX=0.5;entryY=1;entryDx=0;entryDy=0;exitX=0.5;exitY=0;exitDx=0;exitDy=0;" parent="1" source="JgvFJQ8lv26SpHcQZbP2-72" target="JgvFJQ8lv26SpHcQZbP2-2" edge="1">
          <mxGeometry width="100" height="100" relative="1" as="geometry">
            <mxPoint x="330" y="670" as="sourcePoint" />
            <mxPoint x="330" y="840" as="targetPoint" />
          </mxGeometry>
        </mxCell>
        <mxCell id="JgvFJQ8lv26SpHcQZbP2-74" value="" style="fontSize=12;html=1;endArrow=ERoneToMany;rounded=0;entryX=0.5;entryY=0;entryDx=0;entryDy=0;exitX=0.5;exitY=1;exitDx=0;exitDy=0;" parent="1" source="JgvFJQ8lv26SpHcQZbP2-72" target="JgvFJQ8lv26SpHcQZbP2-54" edge="1">
          <mxGeometry width="100" height="100" relative="1" as="geometry">
            <mxPoint x="325" y="700" as="sourcePoint" />
            <mxPoint x="165" y="770" as="targetPoint" />
          </mxGeometry>
        </mxCell>
        <mxCell id="JgvFJQ8lv26SpHcQZbP2-128" value="&lt;font style=&quot;font-size: 15px;&quot;&gt;Customer&lt;/font&gt;" style="whiteSpace=wrap;html=1;align=center;" parent="1" vertex="1">
          <mxGeometry x="-160" y="855" width="100" height="40" as="geometry" />
        </mxCell>
        <mxCell id="JgvFJQ8lv26SpHcQZbP2-129" value="Customer code" style="ellipse;whiteSpace=wrap;html=1;align=center;fontStyle=4;" parent="1" vertex="1">
          <mxGeometry x="-200" y="660" width="90" height="30" as="geometry" />
        </mxCell>
        <mxCell id="JgvFJQ8lv26SpHcQZbP2-130" value="" style="endArrow=none;html=1;rounded=0;entryX=0.5;entryY=1;entryDx=0;entryDy=0;exitX=0.5;exitY=0;exitDx=0;exitDy=0;" parent="1" source="JgvFJQ8lv26SpHcQZbP2-128" target="JgvFJQ8lv26SpHcQZbP2-129" edge="1">
          <mxGeometry width="50" height="50" relative="1" as="geometry">
            <mxPoint x="10" y="875" as="sourcePoint" />
            <mxPoint x="60" y="825" as="targetPoint" />
          </mxGeometry>
        </mxCell>
        <mxCell id="JgvFJQ8lv26SpHcQZbP2-131" value="Customer name" style="ellipse;whiteSpace=wrap;html=1;align=center;" parent="1" vertex="1">
          <mxGeometry x="-290" y="690" width="90" height="30" as="geometry" />
        </mxCell>
        <mxCell id="JgvFJQ8lv26SpHcQZbP2-132" value="" style="endArrow=none;html=1;rounded=0;entryX=1;entryY=0.5;entryDx=0;entryDy=0;exitX=0.5;exitY=0;exitDx=0;exitDy=0;" parent="1" source="JgvFJQ8lv26SpHcQZbP2-128" target="JgvFJQ8lv26SpHcQZbP2-131" edge="1">
          <mxGeometry width="50" height="50" relative="1" as="geometry">
            <mxPoint x="-150" y="885" as="sourcePoint" />
            <mxPoint x="-260" y="750" as="targetPoint" />
          </mxGeometry>
        </mxCell>
        <mxCell id="JgvFJQ8lv26SpHcQZbP2-133" value="Loyalty Level" style="ellipse;whiteSpace=wrap;html=1;align=center;" parent="1" vertex="1">
          <mxGeometry x="-380" y="1000" width="90" height="30" as="geometry" />
        </mxCell>
        <mxCell id="JgvFJQ8lv26SpHcQZbP2-134" value="" style="endArrow=none;html=1;rounded=0;entryX=1;entryY=0.5;entryDx=0;entryDy=0;exitX=0;exitY=0.5;exitDx=0;exitDy=0;" parent="1" source="JgvFJQ8lv26SpHcQZbP2-128" target="JgvFJQ8lv26SpHcQZbP2-133" edge="1">
          <mxGeometry width="50" height="50" relative="1" as="geometry">
            <mxPoint x="-150" y="885" as="sourcePoint" />
            <mxPoint x="-280" y="790" as="targetPoint" />
          </mxGeometry>
        </mxCell>
        <mxCell id="JgvFJQ8lv26SpHcQZbP2-135" value="Gender" style="ellipse;whiteSpace=wrap;html=1;align=center;" parent="1" vertex="1">
          <mxGeometry x="-450" y="920" width="90" height="30" as="geometry" />
        </mxCell>
        <mxCell id="JgvFJQ8lv26SpHcQZbP2-136" value="" style="endArrow=none;html=1;rounded=0;entryX=1;entryY=0.5;entryDx=0;entryDy=0;exitX=0;exitY=0.5;exitDx=0;exitDy=0;" parent="1" source="JgvFJQ8lv26SpHcQZbP2-128" target="JgvFJQ8lv26SpHcQZbP2-135" edge="1">
          <mxGeometry width="50" height="50" relative="1" as="geometry">
            <mxPoint x="-150" y="885" as="sourcePoint" />
            <mxPoint x="-280" y="790" as="targetPoint" />
          </mxGeometry>
        </mxCell>
        <mxCell id="JgvFJQ8lv26SpHcQZbP2-137" value="Loyalty Date" style="ellipse;whiteSpace=wrap;html=1;align=center;" parent="1" vertex="1">
          <mxGeometry x="-430" y="960" width="90" height="30" as="geometry" />
        </mxCell>
        <mxCell id="JgvFJQ8lv26SpHcQZbP2-138" value="" style="endArrow=none;html=1;rounded=0;entryX=1;entryY=0.5;entryDx=0;entryDy=0;exitX=0;exitY=0.5;exitDx=0;exitDy=0;" parent="1" source="JgvFJQ8lv26SpHcQZbP2-128" target="JgvFJQ8lv26SpHcQZbP2-137" edge="1">
          <mxGeometry width="50" height="50" relative="1" as="geometry">
            <mxPoint x="-150" y="920" as="sourcePoint" />
            <mxPoint x="-270" y="835" as="targetPoint" />
          </mxGeometry>
        </mxCell>
        <mxCell id="JgvFJQ8lv26SpHcQZbP2-139" value="DOB  " style="ellipse;whiteSpace=wrap;html=1;align=center;" parent="1" vertex="1">
          <mxGeometry x="-410" y="765" width="90" height="30" as="geometry" />
        </mxCell>
        <mxCell id="JgvFJQ8lv26SpHcQZbP2-140" value="" style="endArrow=none;html=1;rounded=0;entryX=1;entryY=0.5;entryDx=0;entryDy=0;exitX=0;exitY=0.5;exitDx=0;exitDy=0;" parent="1" source="JgvFJQ8lv26SpHcQZbP2-128" target="JgvFJQ8lv26SpHcQZbP2-139" edge="1">
          <mxGeometry width="50" height="50" relative="1" as="geometry">
            <mxPoint x="-150" y="885" as="sourcePoint" />
            <mxPoint x="-280" y="915" as="targetPoint" />
          </mxGeometry>
        </mxCell>
        <mxCell id="JgvFJQ8lv26SpHcQZbP2-141" value="Address" style="ellipse;whiteSpace=wrap;html=1;align=center;" parent="1" vertex="1">
          <mxGeometry x="-470" y="865" width="90" height="30" as="geometry" />
        </mxCell>
        <mxCell id="JgvFJQ8lv26SpHcQZbP2-142" value="" style="endArrow=none;html=1;rounded=0;entryX=1;entryY=0.5;entryDx=0;entryDy=0;exitX=0;exitY=0.5;exitDx=0;exitDy=0;" parent="1" source="JgvFJQ8lv26SpHcQZbP2-128" target="JgvFJQ8lv26SpHcQZbP2-141" edge="1">
          <mxGeometry width="50" height="50" relative="1" as="geometry">
            <mxPoint x="-290" y="855" as="sourcePoint" />
            <mxPoint x="-450" y="810" as="targetPoint" />
          </mxGeometry>
        </mxCell>
        <mxCell id="JgvFJQ8lv26SpHcQZbP2-143" value="Address Line 1" style="ellipse;whiteSpace=wrap;html=1;align=center;dashed=1;" parent="1" vertex="1">
          <mxGeometry x="-655" y="825" width="100" height="40" as="geometry" />
        </mxCell>
        <mxCell id="JgvFJQ8lv26SpHcQZbP2-144" value="Address Line 2" style="ellipse;whiteSpace=wrap;html=1;align=center;dashed=1;" parent="1" vertex="1">
          <mxGeometry x="-655" y="880" width="100" height="40" as="geometry" />
        </mxCell>
        <mxCell id="JgvFJQ8lv26SpHcQZbP2-145" value="" style="endArrow=none;html=1;rounded=0;entryX=1;entryY=0.5;entryDx=0;entryDy=0;exitX=0;exitY=0.5;exitDx=0;exitDy=0;" parent="1" source="JgvFJQ8lv26SpHcQZbP2-141" target="JgvFJQ8lv26SpHcQZbP2-143" edge="1">
          <mxGeometry width="50" height="50" relative="1" as="geometry">
            <mxPoint x="-450" y="905" as="sourcePoint" />
            <mxPoint x="-630" y="790" as="targetPoint" />
          </mxGeometry>
        </mxCell>
        <mxCell id="JgvFJQ8lv26SpHcQZbP2-146" value="" style="endArrow=none;html=1;rounded=0;entryX=1;entryY=0.5;entryDx=0;entryDy=0;exitX=0;exitY=0.5;exitDx=0;exitDy=0;" parent="1" source="JgvFJQ8lv26SpHcQZbP2-141" target="JgvFJQ8lv26SpHcQZbP2-144" edge="1">
          <mxGeometry width="50" height="50" relative="1" as="geometry">
            <mxPoint x="-460" y="890" as="sourcePoint" />
            <mxPoint x="-610" y="785" as="targetPoint" />
          </mxGeometry>
        </mxCell>
        <mxCell id="JgvFJQ8lv26SpHcQZbP2-147" value="Contact" style="ellipse;whiteSpace=wrap;html=1;align=center;" parent="1" vertex="1">
          <mxGeometry x="-360" y="725" width="90" height="30" as="geometry" />
        </mxCell>
        <mxCell id="JgvFJQ8lv26SpHcQZbP2-148" value="" style="endArrow=none;html=1;rounded=0;entryX=1;entryY=0.5;entryDx=0;entryDy=0;exitX=0.5;exitY=0;exitDx=0;exitDy=0;" parent="1" source="JgvFJQ8lv26SpHcQZbP2-128" target="JgvFJQ8lv26SpHcQZbP2-147" edge="1">
          <mxGeometry width="50" height="50" relative="1" as="geometry">
            <mxPoint x="-70" y="795" as="sourcePoint" />
            <mxPoint x="-190" y="710" as="targetPoint" />
          </mxGeometry>
        </mxCell>
        <mxCell id="JgvFJQ8lv26SpHcQZbP2-149" value="Email" style="ellipse;whiteSpace=wrap;html=1;align=center;" parent="1" vertex="1">
          <mxGeometry x="-460" y="815" width="90" height="30" as="geometry" />
        </mxCell>
        <mxCell id="JgvFJQ8lv26SpHcQZbP2-150" value="" style="endArrow=none;html=1;rounded=0;entryX=1;entryY=0.5;entryDx=0;entryDy=0;exitX=0;exitY=0.5;exitDx=0;exitDy=0;" parent="1" source="JgvFJQ8lv26SpHcQZbP2-128" target="JgvFJQ8lv26SpHcQZbP2-149" edge="1">
          <mxGeometry width="50" height="50" relative="1" as="geometry">
            <mxPoint x="-160" y="865" as="sourcePoint" />
            <mxPoint x="-280" y="780" as="targetPoint" />
          </mxGeometry>
        </mxCell>
        <mxCell id="JgvFJQ8lv26SpHcQZbP2-151" value="Loyalty Point" style="ellipse;whiteSpace=wrap;html=1;align=center;" parent="1" vertex="1">
          <mxGeometry x="-320" y="1040" width="90" height="30" as="geometry" />
        </mxCell>
        <mxCell id="JgvFJQ8lv26SpHcQZbP2-152" value="" style="endArrow=none;html=1;rounded=0;entryX=1;entryY=0.5;entryDx=0;entryDy=0;exitX=0.5;exitY=1;exitDx=0;exitDy=0;" parent="1" source="JgvFJQ8lv26SpHcQZbP2-128" target="JgvFJQ8lv26SpHcQZbP2-151" edge="1">
          <mxGeometry width="50" height="50" relative="1" as="geometry">
            <mxPoint x="-80" y="1090" as="sourcePoint" />
            <mxPoint x="-200" y="1005" as="targetPoint" />
          </mxGeometry>
        </mxCell>
        <mxCell id="JgvFJQ8lv26SpHcQZbP2-153" value="Recent Purchase Date" style="ellipse;whiteSpace=wrap;html=1;align=center;" parent="1" vertex="1">
          <mxGeometry x="-280" y="1080" width="150" height="30" as="geometry" />
        </mxCell>
        <mxCell id="JgvFJQ8lv26SpHcQZbP2-154" value="" style="endArrow=none;html=1;rounded=0;entryX=1;entryY=0.5;entryDx=0;entryDy=0;exitX=0.5;exitY=1;exitDx=0;exitDy=0;" parent="1" source="JgvFJQ8lv26SpHcQZbP2-128" target="JgvFJQ8lv26SpHcQZbP2-153" edge="1">
          <mxGeometry width="50" height="50" relative="1" as="geometry">
            <mxPoint x="10" y="1120" as="sourcePoint" />
            <mxPoint x="-110" y="1035" as="targetPoint" />
          </mxGeometry>
        </mxCell>
        <mxCell id="JgvFJQ8lv26SpHcQZbP2-155" value="&lt;font style=&quot;font-size: 15px;&quot;&gt;has&lt;/font&gt;" style="shape=rhombus;perimeter=rhombusPerimeter;whiteSpace=wrap;html=1;align=center;" parent="1" vertex="1">
          <mxGeometry x="75" y="862.5" width="60" height="30" as="geometry" />
        </mxCell>
        <mxCell id="JgvFJQ8lv26SpHcQZbP2-156" value="" style="fontSize=12;html=1;endArrow=ERone;endFill=1;rounded=0;entryX=1;entryY=0.5;entryDx=0;entryDy=0;exitX=0;exitY=0.5;exitDx=0;exitDy=0;" parent="1" source="JgvFJQ8lv26SpHcQZbP2-155" target="JgvFJQ8lv26SpHcQZbP2-128" edge="1">
          <mxGeometry width="100" height="100" relative="1" as="geometry">
            <mxPoint x="105" y="862.5" as="sourcePoint" />
            <mxPoint x="105" y="697.5" as="targetPoint" />
          </mxGeometry>
        </mxCell>
        <mxCell id="JgvFJQ8lv26SpHcQZbP2-157" value="" style="fontSize=12;html=1;endArrow=ERoneToMany;rounded=0;entryX=0;entryY=0.5;entryDx=0;entryDy=0;exitX=1;exitY=0.5;exitDx=0;exitDy=0;" parent="1" source="JgvFJQ8lv26SpHcQZbP2-155" target="JgvFJQ8lv26SpHcQZbP2-54" edge="1">
          <mxGeometry width="100" height="100" relative="1" as="geometry">
            <mxPoint x="100" y="892.5" as="sourcePoint" />
            <mxPoint x="106" y="1052.5" as="targetPoint" />
          </mxGeometry>
        </mxCell>
        <mxCell id="JgvFJQ8lv26SpHcQZbP2-158" value="&lt;font style=&quot;font-size: 15px;&quot;&gt;Inventory&lt;/font&gt;" style="whiteSpace=wrap;html=1;align=center;" parent="1" vertex="1">
          <mxGeometry x="1070" y="865" width="100" height="40" as="geometry" />
        </mxCell>
        <mxCell id="JgvFJQ8lv26SpHcQZbP2-159" value="Item code" style="ellipse;whiteSpace=wrap;html=1;align=center;fontStyle=4;" parent="1" vertex="1">
          <mxGeometry x="790" y="930" width="100" height="30" as="geometry" />
        </mxCell>
        <mxCell id="JgvFJQ8lv26SpHcQZbP2-160" value="" style="endArrow=none;html=1;rounded=0;entryX=0.5;entryY=1;entryDx=0;entryDy=0;exitX=1;exitY=0.5;exitDx=0;exitDy=0;" parent="1" source="JgvFJQ8lv26SpHcQZbP2-159" target="JgvFJQ8lv26SpHcQZbP2-158" edge="1">
          <mxGeometry width="50" height="50" relative="1" as="geometry">
            <mxPoint x="990" y="761" as="sourcePoint" />
            <mxPoint x="1036" y="895" as="targetPoint" />
          </mxGeometry>
        </mxCell>
        <mxCell id="JgvFJQ8lv26SpHcQZbP2-161" value="Category" style="ellipse;whiteSpace=wrap;html=1;align=center;" parent="1" vertex="1">
          <mxGeometry x="810" y="970" width="95" height="30" as="geometry" />
        </mxCell>
        <mxCell id="JgvFJQ8lv26SpHcQZbP2-162" value="" style="endArrow=none;html=1;rounded=0;entryX=0.5;entryY=1;entryDx=0;entryDy=0;exitX=1;exitY=0.5;exitDx=0;exitDy=0;" parent="1" source="JgvFJQ8lv26SpHcQZbP2-161" target="JgvFJQ8lv26SpHcQZbP2-158" edge="1">
          <mxGeometry width="50" height="50" relative="1" as="geometry">
            <mxPoint x="711" y="786" as="sourcePoint" />
            <mxPoint x="630" y="940" as="targetPoint" />
          </mxGeometry>
        </mxCell>
        <mxCell id="JgvFJQ8lv26SpHcQZbP2-165" value="Description" style="ellipse;whiteSpace=wrap;html=1;align=center;" parent="1" vertex="1">
          <mxGeometry x="840" y="1010" width="95" height="30" as="geometry" />
        </mxCell>
        <mxCell id="JgvFJQ8lv26SpHcQZbP2-166" value="" style="endArrow=none;html=1;rounded=0;entryX=0.5;entryY=1;entryDx=0;entryDy=0;exitX=1;exitY=0.5;exitDx=0;exitDy=0;" parent="1" source="JgvFJQ8lv26SpHcQZbP2-165" target="JgvFJQ8lv26SpHcQZbP2-158" edge="1">
          <mxGeometry width="50" height="50" relative="1" as="geometry">
            <mxPoint x="752" y="831" as="sourcePoint" />
            <mxPoint x="1161" y="950" as="targetPoint" />
          </mxGeometry>
        </mxCell>
        <mxCell id="JgvFJQ8lv26SpHcQZbP2-167" value="Item picture" style="ellipse;whiteSpace=wrap;html=1;align=center;" parent="1" vertex="1">
          <mxGeometry x="880" y="1050" width="95" height="30" as="geometry" />
        </mxCell>
        <mxCell id="JgvFJQ8lv26SpHcQZbP2-168" value="" style="endArrow=none;html=1;rounded=0;entryX=0.5;entryY=1;entryDx=0;entryDy=0;exitX=1;exitY=0.5;exitDx=0;exitDy=0;" parent="1" source="JgvFJQ8lv26SpHcQZbP2-167" target="JgvFJQ8lv26SpHcQZbP2-158" edge="1">
          <mxGeometry width="50" height="50" relative="1" as="geometry">
            <mxPoint x="772" y="881" as="sourcePoint" />
            <mxPoint x="1181" y="1000" as="targetPoint" />
          </mxGeometry>
        </mxCell>
        <mxCell id="JgvFJQ8lv26SpHcQZbP2-169" value="Unit Price(Sale)" style="ellipse;whiteSpace=wrap;html=1;align=center;" parent="1" vertex="1">
          <mxGeometry x="940" y="1090" width="95" height="30" as="geometry" />
        </mxCell>
        <mxCell id="JgvFJQ8lv26SpHcQZbP2-170" value="" style="endArrow=none;html=1;rounded=0;exitX=0.5;exitY=0;exitDx=0;exitDy=0;entryX=0.5;entryY=1;entryDx=0;entryDy=0;" parent="1" source="JgvFJQ8lv26SpHcQZbP2-169" target="JgvFJQ8lv26SpHcQZbP2-158" edge="1">
          <mxGeometry width="50" height="50" relative="1" as="geometry">
            <mxPoint x="852" y="913.5" as="sourcePoint" />
            <mxPoint x="1120" y="910" as="targetPoint" />
          </mxGeometry>
        </mxCell>
        <mxCell id="JgvFJQ8lv26SpHcQZbP2-171" value="Unit Price(Buy)" style="ellipse;whiteSpace=wrap;html=1;align=center;" parent="1" vertex="1">
          <mxGeometry x="1030" y="1110" width="95" height="30" as="geometry" />
        </mxCell>
        <mxCell id="JgvFJQ8lv26SpHcQZbP2-172" value="" style="endArrow=none;html=1;rounded=0;exitX=0.5;exitY=0;exitDx=0;exitDy=0;entryX=0.5;entryY=1;entryDx=0;entryDy=0;" parent="1" source="JgvFJQ8lv26SpHcQZbP2-171" target="JgvFJQ8lv26SpHcQZbP2-158" edge="1">
          <mxGeometry width="50" height="50" relative="1" as="geometry">
            <mxPoint x="962" y="913.5" as="sourcePoint" />
            <mxPoint x="1230" y="905" as="targetPoint" />
          </mxGeometry>
        </mxCell>
        <mxCell id="JgvFJQ8lv26SpHcQZbP2-173" value="Profit" style="ellipse;whiteSpace=wrap;html=1;align=center;" parent="1" vertex="1">
          <mxGeometry x="1115" y="1090" width="95" height="30" as="geometry" />
        </mxCell>
        <mxCell id="JgvFJQ8lv26SpHcQZbP2-174" value="" style="endArrow=none;html=1;rounded=0;exitX=0.5;exitY=0;exitDx=0;exitDy=0;entryX=0.5;entryY=1;entryDx=0;entryDy=0;" parent="1" source="JgvFJQ8lv26SpHcQZbP2-173" target="JgvFJQ8lv26SpHcQZbP2-158" edge="1">
          <mxGeometry width="50" height="50" relative="1" as="geometry">
            <mxPoint x="1062" y="888.5" as="sourcePoint" />
            <mxPoint x="1310" y="860" as="targetPoint" />
          </mxGeometry>
        </mxCell>
        <mxCell id="JgvFJQ8lv26SpHcQZbP2-175" value="Profit Margin" style="ellipse;whiteSpace=wrap;html=1;align=center;" parent="1" vertex="1">
          <mxGeometry x="1200" y="1060" width="95" height="30" as="geometry" />
        </mxCell>
        <mxCell id="JgvFJQ8lv26SpHcQZbP2-176" value="" style="endArrow=none;html=1;rounded=0;exitX=0.5;exitY=0;exitDx=0;exitDy=0;entryX=0.5;entryY=1;entryDx=0;entryDy=0;" parent="1" source="JgvFJQ8lv26SpHcQZbP2-175" target="JgvFJQ8lv26SpHcQZbP2-158" edge="1">
          <mxGeometry width="50" height="50" relative="1" as="geometry">
            <mxPoint x="1152" y="858.5" as="sourcePoint" />
            <mxPoint x="1390" y="820" as="targetPoint" />
          </mxGeometry>
        </mxCell>
        <mxCell id="JgvFJQ8lv26SpHcQZbP2-177" value="Status" style="ellipse;whiteSpace=wrap;html=1;align=center;" parent="1" vertex="1">
          <mxGeometry x="1265" y="1020" width="95" height="30" as="geometry" />
        </mxCell>
        <mxCell id="JgvFJQ8lv26SpHcQZbP2-178" value="" style="endArrow=none;html=1;rounded=0;exitX=0;exitY=0.5;exitDx=0;exitDy=0;entryX=0.5;entryY=1;entryDx=0;entryDy=0;" parent="1" source="JgvFJQ8lv26SpHcQZbP2-177" target="JgvFJQ8lv26SpHcQZbP2-158" edge="1">
          <mxGeometry width="50" height="50" relative="1" as="geometry">
            <mxPoint x="1202" y="803.5" as="sourcePoint" />
            <mxPoint x="1430" y="755" as="targetPoint" />
          </mxGeometry>
        </mxCell>
        <mxCell id="JgvFJQ8lv26SpHcQZbP2-179" value="Size-9" style="ellipse;whiteSpace=wrap;html=1;align=center;" parent="1" vertex="1">
          <mxGeometry x="1290" y="980" width="95" height="30" as="geometry" />
        </mxCell>
        <mxCell id="JgvFJQ8lv26SpHcQZbP2-180" value="" style="endArrow=none;html=1;rounded=0;exitX=0;exitY=0.5;exitDx=0;exitDy=0;entryX=1;entryY=0.5;entryDx=0;entryDy=0;" parent="1" source="JgvFJQ8lv26SpHcQZbP2-179" target="JgvFJQ8lv26SpHcQZbP2-158" edge="1">
          <mxGeometry width="50" height="50" relative="1" as="geometry">
            <mxPoint x="1212" y="753.5" as="sourcePoint" />
            <mxPoint x="1480" y="675" as="targetPoint" />
          </mxGeometry>
        </mxCell>
        <mxCell id="JgvFJQ8lv26SpHcQZbP2-181" value="Size-6" style="ellipse;whiteSpace=wrap;html=1;align=center;" parent="1" vertex="1">
          <mxGeometry x="1275" y="855" width="95" height="30" as="geometry" />
        </mxCell>
        <mxCell id="JgvFJQ8lv26SpHcQZbP2-182" value="" style="endArrow=none;html=1;rounded=0;exitX=0;exitY=0.5;exitDx=0;exitDy=0;entryX=1;entryY=0.5;entryDx=0;entryDy=0;" parent="1" source="JgvFJQ8lv26SpHcQZbP2-181" target="JgvFJQ8lv26SpHcQZbP2-158" edge="1">
          <mxGeometry width="50" height="50" relative="1" as="geometry">
            <mxPoint x="1212" y="608.5" as="sourcePoint" />
            <mxPoint x="1170" y="740" as="targetPoint" />
          </mxGeometry>
        </mxCell>
        <mxCell id="JgvFJQ8lv26SpHcQZbP2-183" value="Size-7" style="ellipse;whiteSpace=wrap;html=1;align=center;" parent="1" vertex="1">
          <mxGeometry x="1290" y="900" width="95" height="30" as="geometry" />
        </mxCell>
        <mxCell id="JgvFJQ8lv26SpHcQZbP2-184" value="" style="endArrow=none;html=1;rounded=0;exitX=0;exitY=0.5;exitDx=0;exitDy=0;entryX=1;entryY=0.5;entryDx=0;entryDy=0;" parent="1" source="JgvFJQ8lv26SpHcQZbP2-183" target="JgvFJQ8lv26SpHcQZbP2-158" edge="1">
          <mxGeometry width="50" height="50" relative="1" as="geometry">
            <mxPoint x="1222" y="648.5" as="sourcePoint" />
            <mxPoint x="1180" y="780" as="targetPoint" />
          </mxGeometry>
        </mxCell>
        <mxCell id="JgvFJQ8lv26SpHcQZbP2-185" value="Size-8" style="ellipse;whiteSpace=wrap;html=1;align=center;" parent="1" vertex="1">
          <mxGeometry x="1295" y="940" width="95" height="30" as="geometry" />
        </mxCell>
        <mxCell id="JgvFJQ8lv26SpHcQZbP2-186" value="" style="endArrow=none;html=1;rounded=0;exitX=0;exitY=0.5;exitDx=0;exitDy=0;entryX=1;entryY=0.5;entryDx=0;entryDy=0;" parent="1" source="JgvFJQ8lv26SpHcQZbP2-185" target="JgvFJQ8lv26SpHcQZbP2-158" edge="1">
          <mxGeometry width="50" height="50" relative="1" as="geometry">
            <mxPoint x="1222" y="706" as="sourcePoint" />
            <mxPoint x="1180" y="837.5" as="targetPoint" />
          </mxGeometry>
        </mxCell>
        <mxCell id="JgvFJQ8lv26SpHcQZbP2-188" value="&lt;font style=&quot;font-size: 15px;&quot;&gt;Supplier&lt;/font&gt;" style="whiteSpace=wrap;html=1;align=center;" parent="1" vertex="1">
          <mxGeometry x="1072.5" y="475" width="100" height="40" as="geometry" />
        </mxCell>
        <mxCell id="JgvFJQ8lv26SpHcQZbP2-189" value="Supplier code" style="ellipse;whiteSpace=wrap;html=1;align=center;fontStyle=4;" parent="1" vertex="1">
          <mxGeometry x="850" y="345" width="100" height="30" as="geometry" />
        </mxCell>
        <mxCell id="JgvFJQ8lv26SpHcQZbP2-190" value="" style="endArrow=none;html=1;rounded=0;entryX=0.5;entryY=0;entryDx=0;entryDy=0;exitX=1;exitY=0.5;exitDx=0;exitDy=0;" parent="1" source="JgvFJQ8lv26SpHcQZbP2-189" target="JgvFJQ8lv26SpHcQZbP2-188" edge="1">
          <mxGeometry width="50" height="50" relative="1" as="geometry">
            <mxPoint x="1060" y="-24" as="sourcePoint" />
            <mxPoint x="1190" y="120" as="targetPoint" />
          </mxGeometry>
        </mxCell>
        <mxCell id="JgvFJQ8lv26SpHcQZbP2-191" value="Supplier name" style="ellipse;whiteSpace=wrap;html=1;align=center;" parent="1" vertex="1">
          <mxGeometry x="920" y="305" width="95" height="30" as="geometry" />
        </mxCell>
        <mxCell id="JgvFJQ8lv26SpHcQZbP2-192" value="" style="endArrow=none;html=1;rounded=0;exitX=0.5;exitY=1;exitDx=0;exitDy=0;entryX=0.5;entryY=0;entryDx=0;entryDy=0;" parent="1" source="JgvFJQ8lv26SpHcQZbP2-191" target="JgvFJQ8lv26SpHcQZbP2-188" edge="1">
          <mxGeometry width="50" height="50" relative="1" as="geometry">
            <mxPoint x="827" y="-11.5" as="sourcePoint" />
            <mxPoint x="785" y="265" as="targetPoint" />
          </mxGeometry>
        </mxCell>
        <mxCell id="JgvFJQ8lv26SpHcQZbP2-193" value="Category" style="ellipse;whiteSpace=wrap;html=1;align=center;" parent="1" vertex="1">
          <mxGeometry x="1010" y="280" width="95" height="30" as="geometry" />
        </mxCell>
        <mxCell id="JgvFJQ8lv26SpHcQZbP2-194" value="" style="endArrow=none;html=1;rounded=0;exitX=0.5;exitY=1;exitDx=0;exitDy=0;entryX=0.5;entryY=0;entryDx=0;entryDy=0;" parent="1" source="JgvFJQ8lv26SpHcQZbP2-193" target="JgvFJQ8lv26SpHcQZbP2-188" edge="1">
          <mxGeometry width="50" height="50" relative="1" as="geometry">
            <mxPoint x="922" y="33.5" as="sourcePoint" />
            <mxPoint x="880" y="310" as="targetPoint" />
          </mxGeometry>
        </mxCell>
        <mxCell id="JgvFJQ8lv26SpHcQZbP2-195" value="Email" style="ellipse;whiteSpace=wrap;html=1;align=center;" parent="1" vertex="1">
          <mxGeometry x="1115" y="295" width="95" height="30" as="geometry" />
        </mxCell>
        <mxCell id="JgvFJQ8lv26SpHcQZbP2-196" value="" style="endArrow=none;html=1;rounded=0;exitX=0.5;exitY=1;exitDx=0;exitDy=0;entryX=0.5;entryY=0;entryDx=0;entryDy=0;" parent="1" source="JgvFJQ8lv26SpHcQZbP2-195" target="JgvFJQ8lv26SpHcQZbP2-188" edge="1">
          <mxGeometry width="50" height="50" relative="1" as="geometry">
            <mxPoint x="1027" y="28.5" as="sourcePoint" />
            <mxPoint x="1225" y="295" as="targetPoint" />
          </mxGeometry>
        </mxCell>
        <mxCell id="JgvFJQ8lv26SpHcQZbP2-197" value="Address" style="ellipse;whiteSpace=wrap;html=1;align=center;" parent="1" vertex="1">
          <mxGeometry x="1225" y="375" width="95" height="30" as="geometry" />
        </mxCell>
        <mxCell id="JgvFJQ8lv26SpHcQZbP2-198" value="" style="endArrow=none;html=1;rounded=0;exitX=0.035;exitY=0.711;exitDx=0;exitDy=0;entryX=0.5;entryY=0;entryDx=0;entryDy=0;exitPerimeter=0;" parent="1" source="JgvFJQ8lv26SpHcQZbP2-197" target="JgvFJQ8lv26SpHcQZbP2-188" edge="1">
          <mxGeometry width="50" height="50" relative="1" as="geometry">
            <mxPoint x="1097" y="78.5" as="sourcePoint" />
            <mxPoint x="1295" y="345" as="targetPoint" />
          </mxGeometry>
        </mxCell>
        <mxCell id="JgvFJQ8lv26SpHcQZbP2-200" value="Contact no." style="ellipse;whiteSpace=wrap;html=1;align=center;" parent="1" vertex="1">
          <mxGeometry x="1265" y="475" width="90" height="30" as="geometry" />
        </mxCell>
        <mxCell id="JgvFJQ8lv26SpHcQZbP2-201" value="" style="endArrow=none;html=1;rounded=0;entryX=1;entryY=0.5;entryDx=0;entryDy=0;exitX=0;exitY=0.5;exitDx=0;exitDy=0;" parent="1" source="JgvFJQ8lv26SpHcQZbP2-200" target="JgvFJQ8lv26SpHcQZbP2-188" edge="1">
          <mxGeometry width="50" height="50" relative="1" as="geometry">
            <mxPoint x="1292.5" y="220" as="sourcePoint" />
            <mxPoint x="1052.5" y="145" as="targetPoint" />
          </mxGeometry>
        </mxCell>
        <mxCell id="JgvFJQ8lv26SpHcQZbP2-202" value="Address Line 1" style="ellipse;whiteSpace=wrap;html=1;align=center;dashed=1;" parent="1" vertex="1">
          <mxGeometry x="1385" y="310" width="100" height="40" as="geometry" />
        </mxCell>
        <mxCell id="JgvFJQ8lv26SpHcQZbP2-203" value="Address Line 2" style="ellipse;whiteSpace=wrap;html=1;align=center;dashed=1;" parent="1" vertex="1">
          <mxGeometry x="1400" y="360" width="100" height="40" as="geometry" />
        </mxCell>
        <mxCell id="JgvFJQ8lv26SpHcQZbP2-204" value="" style="endArrow=none;html=1;rounded=0;entryX=1;entryY=0.5;entryDx=0;entryDy=0;exitX=0;exitY=0.5;exitDx=0;exitDy=0;" parent="1" source="JgvFJQ8lv26SpHcQZbP2-202" target="JgvFJQ8lv26SpHcQZbP2-197" edge="1">
          <mxGeometry width="50" height="50" relative="1" as="geometry">
            <mxPoint x="1292.5" y="220" as="sourcePoint" />
            <mxPoint x="1062.5" y="155" as="targetPoint" />
          </mxGeometry>
        </mxCell>
        <mxCell id="JgvFJQ8lv26SpHcQZbP2-205" value="" style="endArrow=none;html=1;rounded=0;entryX=1;entryY=0.5;entryDx=0;entryDy=0;exitX=0;exitY=0.5;exitDx=0;exitDy=0;" parent="1" source="JgvFJQ8lv26SpHcQZbP2-203" target="JgvFJQ8lv26SpHcQZbP2-197" edge="1">
          <mxGeometry width="50" height="50" relative="1" as="geometry">
            <mxPoint x="1542.5" y="185" as="sourcePoint" />
            <mxPoint x="1362.5" y="280" as="targetPoint" />
          </mxGeometry>
        </mxCell>
        <mxCell id="JgvFJQ8lv26SpHcQZbP2-207" value="Land Line" style="ellipse;whiteSpace=wrap;html=1;align=center;dashed=1;" parent="1" vertex="1">
          <mxGeometry x="1430" y="435" width="100" height="40" as="geometry" />
        </mxCell>
        <mxCell id="JgvFJQ8lv26SpHcQZbP2-208" value="Mobile" style="ellipse;whiteSpace=wrap;html=1;align=center;dashed=1;" parent="1" vertex="1">
          <mxGeometry x="1440" y="490" width="100" height="40" as="geometry" />
        </mxCell>
        <mxCell id="JgvFJQ8lv26SpHcQZbP2-209" value="" style="endArrow=none;html=1;rounded=0;entryX=1;entryY=0.5;entryDx=0;entryDy=0;exitX=0;exitY=0.5;exitDx=0;exitDy=0;" parent="1" source="JgvFJQ8lv26SpHcQZbP2-207" target="JgvFJQ8lv26SpHcQZbP2-200" edge="1">
          <mxGeometry width="50" height="50" relative="1" as="geometry">
            <mxPoint x="1337.5" y="395" as="sourcePoint" />
            <mxPoint x="1360" y="395" as="targetPoint" />
          </mxGeometry>
        </mxCell>
        <mxCell id="JgvFJQ8lv26SpHcQZbP2-210" value="" style="endArrow=none;html=1;rounded=0;entryX=1;entryY=0.5;entryDx=0;entryDy=0;exitX=0;exitY=0.5;exitDx=0;exitDy=0;" parent="1" source="JgvFJQ8lv26SpHcQZbP2-208" target="JgvFJQ8lv26SpHcQZbP2-200" edge="1">
          <mxGeometry width="50" height="50" relative="1" as="geometry">
            <mxPoint x="1587.5" y="360" as="sourcePoint" />
            <mxPoint x="1360" y="395" as="targetPoint" />
          </mxGeometry>
        </mxCell>
        <mxCell id="JgvFJQ8lv26SpHcQZbP2-221" value="" style="fontSize=12;html=1;endArrow=ERoneToMany;rounded=0;entryX=0.5;entryY=0;entryDx=0;entryDy=0;exitX=0.5;exitY=1;exitDx=0;exitDy=0;" parent="1" source="fYpn88RysunniwlXco0L-1" target="JgvFJQ8lv26SpHcQZbP2-158" edge="1">
          <mxGeometry width="100" height="100" relative="1" as="geometry">
            <mxPoint x="1122.5" y="695" as="sourcePoint" />
            <mxPoint x="1070" y="862.5" as="targetPoint" />
          </mxGeometry>
        </mxCell>
        <mxCell id="JgvFJQ8lv26SpHcQZbP2-225" value="&lt;span style=&quot;font-size: 11px;&quot;&gt;Order&lt;/span&gt;&lt;br&gt;&lt;div style=&quot;font-size: 11px;&quot;&gt;&lt;font style=&quot;font-size: 11px;&quot;&gt;Details&lt;/font&gt;&lt;/div&gt;" style="shape=associativeEntity;whiteSpace=wrap;html=1;align=center;" parent="1" vertex="1">
          <mxGeometry x="670" y="875" width="70" height="30" as="geometry" />
        </mxCell>
        <mxCell id="JgvFJQ8lv26SpHcQZbP2-226" value="Size" style="ellipse;whiteSpace=wrap;html=1;align=center;" parent="1" vertex="1">
          <mxGeometry x="615" y="750" width="90" height="30" as="geometry" />
        </mxCell>
        <mxCell id="JgvFJQ8lv26SpHcQZbP2-227" value="" style="endArrow=none;html=1;rounded=0;entryX=0.5;entryY=0;entryDx=0;entryDy=0;exitX=0.5;exitY=1;exitDx=0;exitDy=0;" parent="1" source="JgvFJQ8lv26SpHcQZbP2-229" target="JgvFJQ8lv26SpHcQZbP2-225" edge="1">
          <mxGeometry width="50" height="50" relative="1" as="geometry">
            <mxPoint x="852" y="705" as="sourcePoint" />
            <mxPoint x="657.5" y="735" as="targetPoint" />
          </mxGeometry>
        </mxCell>
        <mxCell id="JgvFJQ8lv26SpHcQZbP2-228" value="" style="endArrow=none;html=1;rounded=0;entryX=0.5;entryY=0;entryDx=0;entryDy=0;exitX=0.289;exitY=0.931;exitDx=0;exitDy=0;exitPerimeter=0;" parent="1" source="JgvFJQ8lv26SpHcQZbP2-226" target="JgvFJQ8lv26SpHcQZbP2-225" edge="1">
          <mxGeometry width="50" height="50" relative="1" as="geometry">
            <mxPoint x="862" y="715" as="sourcePoint" />
            <mxPoint x="657.5" y="735" as="targetPoint" />
            <Array as="points" />
          </mxGeometry>
        </mxCell>
        <mxCell id="JgvFJQ8lv26SpHcQZbP2-229" value="Order id" style="ellipse;whiteSpace=wrap;html=1;align=center;fontStyle=4;" parent="1" vertex="1">
          <mxGeometry x="530" y="780" width="100" height="30" as="geometry" />
        </mxCell>
        <mxCell id="JgvFJQ8lv26SpHcQZbP2-230" value="Item code" style="ellipse;whiteSpace=wrap;html=1;align=center;fontStyle=4;" parent="1" vertex="1">
          <mxGeometry x="505" y="825" width="100" height="30" as="geometry" />
        </mxCell>
        <mxCell id="JgvFJQ8lv26SpHcQZbP2-231" value="" style="endArrow=none;html=1;rounded=0;entryX=0.5;entryY=0;entryDx=0;entryDy=0;exitX=0.891;exitY=0.756;exitDx=0;exitDy=0;exitPerimeter=0;" parent="1" source="JgvFJQ8lv26SpHcQZbP2-230" target="JgvFJQ8lv26SpHcQZbP2-225" edge="1">
          <mxGeometry width="50" height="50" relative="1" as="geometry">
            <mxPoint x="801.5" y="675" as="sourcePoint" />
            <mxPoint x="657.5" y="735" as="targetPoint" />
          </mxGeometry>
        </mxCell>
        <mxCell id="JgvFJQ8lv26SpHcQZbP2-233" value="Item name" style="ellipse;whiteSpace=wrap;html=1;align=center;" parent="1" vertex="1">
          <mxGeometry x="720" y="740" width="90" height="30" as="geometry" />
        </mxCell>
        <mxCell id="JgvFJQ8lv26SpHcQZbP2-234" value="" style="endArrow=none;html=1;rounded=0;entryX=0.5;entryY=0;entryDx=0;entryDy=0;exitX=0.289;exitY=0.931;exitDx=0;exitDy=0;exitPerimeter=0;" parent="1" source="JgvFJQ8lv26SpHcQZbP2-233" target="JgvFJQ8lv26SpHcQZbP2-225" edge="1">
          <mxGeometry width="50" height="50" relative="1" as="geometry">
            <mxPoint x="924.5" y="745" as="sourcePoint" />
            <mxPoint x="767.5" y="905" as="targetPoint" />
            <Array as="points" />
          </mxGeometry>
        </mxCell>
        <mxCell id="JgvFJQ8lv26SpHcQZbP2-235" value="Quantity&lt;span style=&quot;color: rgba(0, 0, 0, 0); font-family: monospace; font-size: 0px; text-align: start; text-wrap: nowrap;&quot;&gt;%3CmxGraphModel%3E%3Croot%3E%3CmxCell%20id%3D%220%22%2F%3E%3CmxCell%20id%3D%221%22%20parent%3D%220%22%2F%3E%3CmxCell%20id%3D%222%22%20value%3D%22Size%22%20style%3D%22ellipse%3BwhiteSpace%3Dwrap%3Bhtml%3D1%3Balign%3Dcenter%3B%22%20vertex%3D%221%22%20parent%3D%221%22%3E%3CmxGeometry%20x%3D%22687.5%22%20y%3D%22770%22%20width%3D%2290%22%20height%3D%2230%22%20as%3D%22geometry%22%2F%3E%3C%2FmxCell%3E%3CmxCell%20id%3D%223%22%20value%3D%22%22%20style%3D%22endArrow%3Dnone%3Bhtml%3D1%3Brounded%3D0%3BentryX%3D0.5%3BentryY%3D0%3BentryDx%3D0%3BentryDy%3D0%3BexitX%3D0.289%3BexitY%3D0.931%3BexitDx%3D0%3BexitDy%3D0%3BexitPerimeter%3D0%3B%22%20edge%3D%221%22%20source%3D%222%22%20parent%3D%221%22%3E%3CmxGeometry%20width%3D%2250%22%20height%3D%2250%22%20relative%3D%221%22%20as%3D%22geometry%22%3E%3CmxPoint%20x%3D%22862%22%20y%3D%22715%22%20as%3D%22sourcePoint%22%2F%3E%3CmxPoint%20x%3D%22705%22%20y%3D%22875%22%20as%3D%22targetPoint%22%2F%3E%3CArray%20as%3D%22points%22%2F%3E%3C%2FmxGeometry%3E%3C%2FmxCell%3E%3C%2Froot%3E%3C%2FmxGraphModel%3E&lt;/span&gt;" style="ellipse;whiteSpace=wrap;html=1;align=center;" parent="1" vertex="1">
          <mxGeometry x="770" y="780" width="90" height="30" as="geometry" />
        </mxCell>
        <mxCell id="JgvFJQ8lv26SpHcQZbP2-236" value="" style="endArrow=none;html=1;rounded=0;entryX=0.5;entryY=0;entryDx=0;entryDy=0;exitX=0.289;exitY=0.931;exitDx=0;exitDy=0;exitPerimeter=0;" parent="1" source="JgvFJQ8lv26SpHcQZbP2-235" target="JgvFJQ8lv26SpHcQZbP2-225" edge="1">
          <mxGeometry width="50" height="50" relative="1" as="geometry">
            <mxPoint x="1004.5" y="767.5" as="sourcePoint" />
            <mxPoint x="847.5" y="927.5" as="targetPoint" />
            <Array as="points" />
          </mxGeometry>
        </mxCell>
        <mxCell id="JgvFJQ8lv26SpHcQZbP2-237" value="Unit price" style="ellipse;whiteSpace=wrap;html=1;align=center;" parent="1" vertex="1">
          <mxGeometry x="810" y="825" width="90" height="30" as="geometry" />
        </mxCell>
        <mxCell id="JgvFJQ8lv26SpHcQZbP2-238" value="" style="endArrow=none;html=1;rounded=0;entryX=0.5;entryY=0;entryDx=0;entryDy=0;exitX=0;exitY=0.5;exitDx=0;exitDy=0;" parent="1" source="JgvFJQ8lv26SpHcQZbP2-237" target="JgvFJQ8lv26SpHcQZbP2-225" edge="1">
          <mxGeometry width="50" height="50" relative="1" as="geometry">
            <mxPoint x="989.5" y="825" as="sourcePoint" />
            <mxPoint x="832.5" y="985" as="targetPoint" />
            <Array as="points" />
          </mxGeometry>
        </mxCell>
        <mxCell id="JgvFJQ8lv26SpHcQZbP2-239" value="" style="fontSize=12;html=1;endArrow=ERoneToMany;rounded=0;entryX=0;entryY=0.5;entryDx=0;entryDy=0;exitX=1;exitY=0.5;exitDx=0;exitDy=0;" parent="1" source="JgvFJQ8lv26SpHcQZbP2-225" target="JgvFJQ8lv26SpHcQZbP2-158" edge="1">
          <mxGeometry width="100" height="100" relative="1" as="geometry">
            <mxPoint x="953" y="745" as="sourcePoint" />
            <mxPoint x="950" y="915" as="targetPoint" />
          </mxGeometry>
        </mxCell>
        <mxCell id="JgvFJQ8lv26SpHcQZbP2-240" value="" style="fontSize=12;html=1;endArrow=ERoneToMany;rounded=0;entryX=1;entryY=0.5;entryDx=0;entryDy=0;exitX=0;exitY=0.5;exitDx=0;exitDy=0;" parent="1" source="JgvFJQ8lv26SpHcQZbP2-225" target="JgvFJQ8lv26SpHcQZbP2-54" edge="1">
          <mxGeometry width="100" height="100" relative="1" as="geometry">
            <mxPoint x="433" y="655" as="sourcePoint" />
            <mxPoint x="430" y="825" as="targetPoint" />
          </mxGeometry>
        </mxCell>
        <mxCell id="JgvFJQ8lv26SpHcQZbP2-241" value="&lt;font style=&quot;font-size: 15px;&quot;&gt;User&lt;/font&gt;" style="whiteSpace=wrap;html=1;align=center;" parent="1" vertex="1">
          <mxGeometry x="-310" y="450" width="100" height="40" as="geometry" />
        </mxCell>
        <mxCell id="JgvFJQ8lv26SpHcQZbP2-242" value="Email" style="ellipse;whiteSpace=wrap;html=1;align=center;" parent="1" vertex="1">
          <mxGeometry x="-475" y="405" width="100" height="30" as="geometry" />
        </mxCell>
        <mxCell id="JgvFJQ8lv26SpHcQZbP2-243" value="Password" style="ellipse;whiteSpace=wrap;html=1;align=center;" parent="1" vertex="1">
          <mxGeometry x="-470" y="460" width="100" height="30" as="geometry" />
        </mxCell>
        <mxCell id="JgvFJQ8lv26SpHcQZbP2-244" value="Role" style="ellipse;whiteSpace=wrap;html=1;align=center;" parent="1" vertex="1">
          <mxGeometry x="-450" y="520" width="100" height="30" as="geometry" />
        </mxCell>
        <mxCell id="JgvFJQ8lv26SpHcQZbP2-245" value="" style="endArrow=none;html=1;rounded=0;exitX=0;exitY=0.5;exitDx=0;exitDy=0;entryX=0.931;entryY=0.746;entryDx=0;entryDy=0;entryPerimeter=0;" parent="1" source="JgvFJQ8lv26SpHcQZbP2-241" target="JgvFJQ8lv26SpHcQZbP2-242" edge="1">
          <mxGeometry width="50" height="50" relative="1" as="geometry">
            <mxPoint x="-601.5" y="470" as="sourcePoint" />
            <mxPoint x="-380" y="430" as="targetPoint" />
          </mxGeometry>
        </mxCell>
        <mxCell id="JgvFJQ8lv26SpHcQZbP2-246" value="" style="endArrow=none;html=1;rounded=0;entryX=0.981;entryY=0.381;entryDx=0;entryDy=0;exitX=0;exitY=0.5;exitDx=0;exitDy=0;entryPerimeter=0;" parent="1" source="JgvFJQ8lv26SpHcQZbP2-241" target="JgvFJQ8lv26SpHcQZbP2-243" edge="1">
          <mxGeometry width="50" height="50" relative="1" as="geometry">
            <mxPoint x="-320" y="480" as="sourcePoint" />
            <mxPoint x="-405" y="560" as="targetPoint" />
          </mxGeometry>
        </mxCell>
        <mxCell id="JgvFJQ8lv26SpHcQZbP2-247" value="" style="endArrow=none;html=1;rounded=0;entryX=0.5;entryY=0;entryDx=0;entryDy=0;exitX=0;exitY=0.5;exitDx=0;exitDy=0;" parent="1" source="JgvFJQ8lv26SpHcQZbP2-241" target="JgvFJQ8lv26SpHcQZbP2-244" edge="1">
          <mxGeometry width="50" height="50" relative="1" as="geometry">
            <mxPoint x="-320" y="480" as="sourcePoint" />
            <mxPoint x="-315" y="605" as="targetPoint" />
          </mxGeometry>
        </mxCell>
        <mxCell id="fYpn88RysunniwlXco0L-1" value="&lt;font style=&quot;font-size: 15px;&quot;&gt;has&lt;/font&gt;" style="shape=rhombus;perimeter=rhombusPerimeter;whiteSpace=wrap;html=1;align=center;" parent="1" vertex="1">
          <mxGeometry x="1090" y="660" width="60" height="30" as="geometry" />
        </mxCell>
        <mxCell id="fYpn88RysunniwlXco0L-2" value="" style="fontSize=12;html=1;endArrow=ERone;endFill=1;rounded=0;entryX=0.5;entryY=1;entryDx=0;entryDy=0;exitX=0.5;exitY=0;exitDx=0;exitDy=0;" parent="1" source="fYpn88RysunniwlXco0L-1" target="JgvFJQ8lv26SpHcQZbP2-188" edge="1">
          <mxGeometry width="100" height="100" relative="1" as="geometry">
            <mxPoint x="1125" y="660" as="sourcePoint" />
            <mxPoint x="960" y="672.5" as="targetPoint" />
          </mxGeometry>
        </mxCell>
        <mxCell id="MYb1LbrhypjVZaCUNC99-1" value="First name" style="ellipse;whiteSpace=wrap;html=1;align=center;" vertex="1" parent="1">
          <mxGeometry x="-370" y="380" width="100" height="30" as="geometry" />
        </mxCell>
        <mxCell id="MYb1LbrhypjVZaCUNC99-2" value="" style="endArrow=none;html=1;rounded=0;entryX=0.5;entryY=1;entryDx=0;entryDy=0;exitX=0.5;exitY=0;exitDx=0;exitDy=0;" edge="1" parent="1" target="MYb1LbrhypjVZaCUNC99-1" source="JgvFJQ8lv26SpHcQZbP2-241">
          <mxGeometry width="50" height="50" relative="1" as="geometry">
            <mxPoint x="-230" y="330" as="sourcePoint" />
            <mxPoint x="-235" y="465" as="targetPoint" />
          </mxGeometry>
        </mxCell>
        <mxCell id="MYb1LbrhypjVZaCUNC99-7" value="Last name" style="ellipse;whiteSpace=wrap;html=1;align=center;" vertex="1" parent="1">
          <mxGeometry x="-250" y="375" width="100" height="30" as="geometry" />
        </mxCell>
        <mxCell id="MYb1LbrhypjVZaCUNC99-8" value="" style="endArrow=none;html=1;rounded=0;entryX=0.5;entryY=1;entryDx=0;entryDy=0;exitX=0.5;exitY=0;exitDx=0;exitDy=0;" edge="1" parent="1" target="MYb1LbrhypjVZaCUNC99-7" source="JgvFJQ8lv26SpHcQZbP2-241">
          <mxGeometry width="50" height="50" relative="1" as="geometry">
            <mxPoint x="-140" y="445" as="sourcePoint" />
            <mxPoint x="-115" y="460" as="targetPoint" />
          </mxGeometry>
        </mxCell>
      </root>
    </mxGraphModel>
  </diagram>
</mxfile>
